<?xml version="1.0" encoding="UTF-8"?>
<svg version="1.1" xmlns="http://www.w3.org/2000/svg" width="579" height="579">
<path d="M0 0 C11.46561715 8.29339396 17.69130039 18.54468362 22.125 31.8125 C31.50368322 58.55143683 45.78270488 80.77372922 65.25 101.25 C65.86875 101.93320313 66.4875 102.61640625 67.125 103.3203125 C87.26689868 124.81099904 114.90794183 137.06660791 143.25 143.25 C144.33498779 143.48759033 144.33498779 143.48759033 145.44189453 143.72998047 C168.83253401 148.65181605 192.84892217 148.09011934 216.25 143.625 C231.70855828 140.70217096 245.5376473 141.82849387 258.9765625 150.5703125 C270.47361628 159.06469931 277.57099551 171.21654194 279.71484375 185.3046875 C281.43803363 201.45233198 277.54074102 215.5182562 267.47119141 228.24072266 C259.82590445 237.57628466 251.64569575 246.6517417 242.25 254.25 C241.19883453 255.13626324 240.14809415 256.02303078 239.09765625 256.91015625 C232.0265516 262.80032549 224.71837853 268.08029135 216.9375 273 C216.10694092 273.52553467 215.27638184 274.05106934 214.4206543 274.5925293 C208.51970568 278.25 208.51970568 278.25 206.25 278.25 C206.25 278.91 206.25 279.57 206.25 280.25 C207.50296875 280.59224609 207.50296875 280.59224609 208.78125 280.94140625 C212.92122834 282.5032224 216.15490219 284.6459558 219.75 287.1875 C220.44996094 287.67766602 221.14992188 288.16783203 221.87109375 288.67285156 C232.02912683 295.85052141 241.58387369 303.45400023 250.6875 311.9375 C251.66299805 312.84580566 251.66299805 312.84580566 252.65820312 313.77246094 C267.12731607 327.49060759 278.99768235 343.0321046 280.2734375 363.5859375 C280.1735513 379.20148023 274.90344614 392.47423178 264.015625 403.76953125 C252.72333484 413.89750335 240.08063286 416.98057861 225.25 416.25 C221.23728235 415.76559416 217.28387911 415.05864375 213.3125 414.3125 C204.95782166 412.83878574 196.74659719 411.50713386 188.25 411.25 C187.1259375 411.21003906 186.001875 411.17007812 184.84375 411.12890625 C148.75317998 410.47341513 110.97358442 419.84830967 82.25 442.25 C81.33089844 442.94609375 80.41179687 443.6421875 79.46484375 444.359375 C54.34623131 464.03993732 35.2098306 490.92991741 24.1875 520.8125 C18.19730666 537.0338491 11.94354749 553.39421295 -4.75 561.25 C-17.71521632 566.83275603 -32.48907338 567.3645709 -45.796875 562.56640625 C-61.50608549 555.56375554 -71.6591047 544.12564434 -77.75 528.25 C-85.40928504 506.66261171 -90.03344089 483.56886164 -89.8125 460.625 C-89.80798828 459.71621094 -89.80347656 458.80742187 -89.79882812 457.87109375 C-89.78721178 455.66398911 -89.77088168 453.45703303 -89.75 451.25 C-90.75933594 451.85585938 -91.76867187 452.46171875 -92.80859375 453.0859375 C-119.68652049 468.82523541 -155.70346661 484.28179396 -187.58203125 478.5625 C-201.91595425 474.48166783 -213.2181189 466.07213091 -220.75 453.25 C-226.82163152 440.68422651 -229.02922306 428.09418068 -225.125 414.4375 C-221.97775504 405.51668843 -217.31976684 398.77462624 -211.125 391.75 C-181.6099584 358.19073056 -165.36459151 312.87996938 -167.75 268.25 C-170.74908219 230.72247753 -187.0413505 194.02453142 -212.0625 166.0625 C-222.48437702 154.36200918 -227.31160043 141.79500198 -227.0625 126.1328125 C-225.9932905 112.84788452 -219.54628769 100.27684747 -209.75 91.25 C-195.40180002 80.45573879 -181.31371445 77.71934475 -163.75 79.25 C-138.12455743 83.21095437 -113.03708269 93.16648992 -90.75 106.25 C-90.71036133 105.49195068 -90.67072266 104.73390137 -90.62988281 103.95288086 C-88.96240366 73.40622892 -86.65599637 37.66128545 -67.75 12.25 C-66.63625 10.703125 -66.63625 10.703125 -65.5 9.125 C-48.76579718 -8.3698484 -20.73272322 -12.83955448 0 0 Z M-88.11572266 214.82714844 C-99.73316615 229.38554842 -105.16287553 247.09018418 -103.31640625 265.59375 C-100.50407386 283.74784044 -92.41630762 296.53272133 -79.75 309.25 C-78.92757812 310.09820312 -78.10515625 310.94640625 -77.2578125 311.8203125 C-74.05810585 315.08644905 -70.81008585 318.20182471 -67.328125 321.1640625 C-60.33892506 327.24268623 -53.9581508 333.98821689 -47.44970703 340.57080078 C-39.8048691 348.3978931 -39.8048691 348.3978931 -31.7265625 355.765625 C-28.1184477 358.83052125 -24.81098466 362.14494342 -21.4921875 365.515625 C-20.65708649 366.36253906 -20.65708649 366.36253906 -19.80511475 367.2265625 C-17.48883071 369.57936061 -15.17552288 371.93491303 -12.87158203 374.29980469 C-11.1685984 376.04525555 -9.45618345 377.7809959 -7.7421875 379.515625 C-7.22953339 380.04690002 -6.71687927 380.57817505 -6.18869019 381.12554932 C-2.38387754 384.95695278 1.37909162 387.75746394 6.77734375 388.68359375 C7.57269531 388.68488281 8.36804688 388.68617188 9.1875 388.6875 C9.98027344 388.70683594 10.77304687 388.72617187 11.58984375 388.74609375 C18.83168493 387.39555949 23.72212429 382.17941778 28.65234375 377.10546875 C29.33373917 376.41745682 30.01513458 375.72944489 30.71717834 375.02058411 C32.88123475 372.8332691 35.03484067 370.63602736 37.1875 368.4375 C39.33826952 366.25142836 41.49125157 364.0676042 43.64710999 361.8865509 C44.982841 360.53412214 46.31545837 359.17860783 47.64427185 357.81938171 C51.38626621 354.01824782 55.25741638 350.46029598 59.29566956 346.977005 C62.43649352 344.20151802 65.3705725 341.23331782 68.3125 338.25 C68.94808838 337.610625 69.58367676 336.97125 70.23852539 336.3125 C72.2448365 334.29411603 74.24784001 332.27250124 76.25 330.25 C91.50400561 314.841019 91.50400561 314.841019 97.67919922 309.60302734 C110.39405801 298.65093729 120.15277919 282.91038339 121.42700195 265.88500977 C121.96408762 244.46791641 118.32654357 228.67845447 103.95703125 212.046875 C91.99987008 199.69286721 75.61715609 192.36820654 58.43847656 191.82568359 C39.68682043 191.71882527 24.30783087 197.77934358 10.25 210.25 C6.56627979 208.59409692 3.50605535 206.31170702 0.25 203.9375 C-27.33952911 184.42829183 -65.86317236 189.12970923 -88.11572266 214.82714844 Z " fill="#0478FD" transform="translate(278.75,6.75)"/>
<path d="M0 0 C9.27803049 7.30644901 16.19065476 17.8037457 18.25390625 29.56640625 C19.70742764 43.75554366 17.218562 56.64846695 8.78515625 68.34765625 C0.07496468 78.8746976 -11.62763424 84.95860287 -25.203125 86.34765625 C-37.89216478 86.75234785 -48.46074011 83.73844197 -58.5 75.96875 C-59.53125 75.246875 -60.5625 74.525 -61.625 73.78125 C-69.99788069 66.5247534 -75.70472573 53.90377118 -76.5 42.96875 C-76.5515625 42.31777344 -76.603125 41.66679687 -76.65625 40.99609375 C-77.21646917 28.13439539 -72.61894657 16.24998501 -64.75 6.21875 C-47.67164532 -12.32727578 -20.36875448 -13.97391295 0 0 Z " fill="#0378FE" transform="translate(436.5,457.03125)"/>
<path d="M0 0 C10.37885605 7.04866195 17.40473127 17.06217738 20.625 29.25 C23.09189312 43.53742265 20.51985804 57.37084571 12.21875 69.34765625 C5.11890231 78.23655286 -5.12185412 85.30720538 -16.4453125 87.5625 C-31.27781747 89.17144969 -43.8182694 86.97526359 -55.75 77.8125 C-56.61625 77.235 -57.4825 76.6575 -58.375 76.0625 C-68.24403237 66.71289039 -73.49663105 53.95783983 -74.0625 40.5 C-73.66947455 27.39144513 -68.73349806 15.236726 -59.78125 5.65625 C-42.59485914 -9.94370478 -19.66764992 -11.58505406 0 0 Z " fill="#0378FD" transform="translate(433.75,36.1875)"/>
<path d="M0 0 C0.86625 0.5775 1.7325 1.155 2.625 1.75 C11.17479599 9.84980673 16.44709459 20.80612308 17.23828125 32.53125 C17.49531079 46.27556636 15.00535763 57.19357085 6 68 C5.42636719 68.70898438 4.85273437 69.41796875 4.26171875 70.1484375 C-4.23626334 79.6472526 -15.73658776 84.04449595 -28.1875 84.90625 C-41.31765332 85.22912262 -52.91784901 80.54128225 -63 72.1875 C-67.35221777 67.98869992 -70.3282512 63.40034332 -73 58 C-73.41378906 57.21496094 -73.82757813 56.42992187 -74.25390625 55.62109375 C-78.80730046 45.4830488 -78.93450901 31.37405599 -75.375 20.875 C-74.63323124 19.22662498 -73.84187595 17.59956431 -73 16 C-72.5875 15.154375 -72.175 14.30875 -71.75 13.4375 C-65.54207605 1.86818719 -55.7439995 -4.57098059 -43.8125 -9.25 C-27.88652753 -13.49692599 -13.03231686 -9.6417954 0 0 Z " fill="#0378FD" transform="translate(77,249)"/>
<path d="M0 0 C4.19519242 3.46559374 8.11235081 7.06505375 11.9375 10.9375 C14.8135079 13.84805454 17.69214824 16.66612572 20.8125 19.3125 C26.88797955 24.49857945 32.39457246 30.31766873 38 36 C25.77237862 58.2229522 9.93367097 79.98372872 -10 96 C-10.50257324 96.40959961 -11.00514648 96.81919922 -11.52294922 97.24121094 C-32.12948013 114 -32.12948013 114 -36 114 C-36.32184327 102.36596184 -36.15818045 91.53576143 -33.49609375 80.15039062 C-32.95369455 77.79928229 -32.46122354 75.440174 -31.96875 73.078125 C-26.24410445 46.50012528 -15.01427334 22.52141001 0 0 Z " fill="#223CFD" transform="translate(226,342)"/>
<path d="M0 0 C4.29057816 1.48612204 7.78772268 3.73127742 11.4375 6.375 C12.04658203 6.81489258 12.65566406 7.25478516 13.28320312 7.70800781 C30.34594956 20.22010399 45.49567923 34.9289694 58 52 C59.16982422 53.58748047 59.16982422 53.58748047 60.36328125 55.20703125 C66.24087609 63.43972454 71.23597091 72.08641834 76 81 C76.60070312 82.10472656 77.20140625 83.20945312 77.8203125 84.34765625 C78.20960938 85.22292969 78.59890625 86.09820312 79 87 C78.67 87.66 78.34 88.32 78 89 C77.20335937 88.72285156 76.40671875 88.44570312 75.5859375 88.16015625 C74.52632813 87.79792969 73.46671875 87.43570313 72.375 87.0625 C71.33085937 86.70285156 70.28671875 86.34320313 69.2109375 85.97265625 C56.43577134 82.10280665 42.82745001 83.1234905 30.234375 87.02734375 C27.15672775 87.9528681 24.1772153 88.54267356 21 89 C13.65674865 72.02106096 6.84758827 55.14414535 3 37 C2.84901855 36.29262695 2.69803711 35.58525391 2.54248047 34.85644531 C0.12911119 23.16709468 -0.35660776 11.91334087 0 0 Z " fill="#223CFD" transform="translate(190,116)"/>
<path d="M0 0 C1.91714093 0.11750219 3.83369673 0.24454743 5.75 0.375 C6.81734375 0.44460938 7.8846875 0.51421875 8.984375 0.5859375 C18.80388908 1.4742775 28.31745231 3.66706955 37.8125 6.25 C38.95251465 6.5601001 40.0925293 6.8702002 41.26708984 7.18969727 C55.66962394 11.19654823 68.75907078 17.14464374 82 24 C82 24.66 82 25.32 82 26 C49.87719032 42.63125758 18.08604767 50.32380302 -18 50 C-16.10698345 47.1501195 -14.21301383 44.30498625 -12.25390625 41.5 C-5.04107999 30.83900969 -1.27400135 19.47402065 -0.4375 6.6875 C-0.35371094 5.43324219 -0.26992188 4.17898438 -0.18359375 2.88671875 C-0.09271484 1.45779297 -0.09271484 1.45779297 0 0 Z " fill="#223CFE" transform="translate(400,261)"/>
</svg>
