<svg xmlns="http://www.w3.org/2000/svg" width="495" height="128" viewBox="0 0 495 128" fill="none"><path d="M192.14 126.216C185.091 126.216 178.964 125.294 174.148 122.83C169.331 120.366 165.958 115.633 163.617 110.755C161.263 105.888 160.159 99.8079 160.159 92.5263V53.3997H154.675C153.499 53.3997 152.504 52.987 151.679 52.1618C150.854 51.3365 150.441 50.2807 150.441 48.9943V38.2053C150.441 37.0281 150.854 36.033 151.679 35.2077C152.504 34.3825 153.499 33.9698 154.675 33.9698H160.159V13.9332C160.159 12.756 160.475 11.7609 161.239 10.9356C162.003 10.1225 163.022 9.69775 164.321 9.69775H174.949C176.125 9.69775 177.12 10.1104 177.945 10.9356C178.77 11.7609 179.571 12.756 179.571 13.9332V33.982H199.589C200.766 33.982 201.797 34.3946 202.622 35.2199C203.447 36.0451 203.836 37.0403 203.836 38.2175V49.0064C203.836 50.305 203.447 51.3608 202.622 52.1739C201.797 52.9992 200.766 53.4118 199.589 53.4118H179.571V90.7665C179.571 95.5846 180.299 99.3467 181.997 102.041C183.696 104.747 186.401 106.81 190.624 106.81H199.589C200.766 106.81 201.797 107.223 202.622 108.048C203.447 108.874 203.836 109.869 203.836 111.046V122.005C203.836 123.182 203.447 124.177 202.622 125.002C201.797 125.828 200.766 126.24 199.589 126.24H192.152L192.14 126.216Z" fill="#0479FE"></path><path d="M447.466 128C441.824 128 436.716 126.811 432.167 124.432C427.605 122.053 424.002 118.862 421.345 114.857C418.688 110.852 417.353 106.349 417.353 101.361C417.353 93.2423 420.447 86.7617 426.634 81.9558C432.822 77.1378 440.902 73.9217 450.887 72.2955L475.431 68.8125V65.1595C475.431 60.2808 473.174 49.8438 457.645 49.8438C446.07 49.8438 442.382 56.2881 441.181 59.0672C440.307 60.5721 439.07 61.3245 437.432 61.3245H425.785C424.584 61.3245 423.698 60.9726 423.104 60.2808C422.509 59.5891 422.206 58.6546 422.206 57.4895C422.315 55.6327 423.043 53.3754 424.402 50.7055C425.761 48.0355 427.823 45.4506 430.589 42.9627C433.356 40.4627 436.959 38.351 441.411 36.6034C445.864 34.8558 451.506 33.9941 457.79 33.9941C464.621 33.9941 470.82 34.8922 475.54 36.6883C480.259 38.4845 484.032 40.8996 486.859 43.9093C489.686 46.9312 491.749 50.4628 493.047 54.5283C494.345 58.5939 495 62.8901 495 67.4168V121.98C495 123.146 494.624 124.201 493.86 125.014C493.095 125.828 492.173 126.228 491.093 126.228H479.507C478.306 126.228 477.36 125.828 476.656 125.014C475.952 124.201 475.6 123.146 475.6 121.98V115.294C474.193 117.381 470.687 119.42 468.297 121.386C465.907 123.364 463.007 124.954 459.586 126.167C456.164 127.381 452.124 128 447.453 128H447.466ZM452.246 111.908C456.177 111.908 459.731 111.022 462.934 109.25C466.137 107.478 475.6 99.5167 475.6 86.968V83.0359L456.468 86.0821C449.843 87.1379 444.918 88.8491 441.666 91.2156C438.415 93.57 436.789 96.4584 436.789 99.8807C436.789 102.478 437.541 104.687 439.058 106.507C440.574 108.34 442.503 109.687 444.857 110.573C447.211 111.459 449.674 111.895 452.258 111.895L452.246 111.908Z" fill="#0479FE"></path><path d="M243.642 128C238 128 232.893 126.811 228.343 124.432C223.781 122.053 220.178 118.862 217.521 114.857C214.864 110.852 213.529 106.349 213.529 101.361C213.529 93.2423 216.623 86.7617 222.811 81.9558C228.998 77.1378 237.078 73.9217 247.063 72.2955L271.607 68.8125V65.1595C271.607 60.2808 269.35 49.8438 253.821 49.8438C242.247 49.8438 238.558 56.2881 237.357 59.0672C236.484 60.5721 235.246 61.3245 233.608 61.3245H221.961C220.76 61.3245 219.875 60.9726 219.28 60.2808C218.686 59.5891 218.382 58.6546 218.382 57.4895C218.491 55.6327 219.219 53.3754 220.578 50.7055C221.937 48.0355 224 45.4506 226.766 42.9627C229.532 40.4627 233.135 38.351 237.588 36.6034C242.04 34.8558 247.682 33.9941 253.966 33.9941C260.797 33.9941 266.997 34.8922 271.716 36.6883C276.436 38.4845 280.209 40.8996 283.036 43.9093C285.862 46.9312 287.925 50.4628 289.223 54.5283C290.521 58.5939 291.176 62.8901 291.176 67.4168V121.98C291.176 123.146 290.8 124.201 290.036 125.014C289.272 125.828 288.35 126.228 287.27 126.228H275.683C274.482 126.228 273.536 125.828 272.832 125.014C272.129 124.201 271.777 123.146 271.777 121.98V115.294C270.369 117.381 266.863 119.42 264.473 121.386C262.083 123.364 259.183 124.954 255.762 126.167C252.341 127.381 248.301 128 243.63 128H243.642ZM248.422 111.908C252.353 111.908 255.908 111.022 259.111 109.25C262.313 107.478 271.777 99.5167 271.777 86.968V83.0359L252.644 86.0821C246.02 87.1379 241.094 88.8491 237.843 91.2156C234.591 93.57 232.965 96.4584 232.965 99.8807C232.965 102.478 233.718 104.687 235.234 106.507C236.751 108.34 238.68 109.687 241.033 110.573C243.387 111.459 245.85 111.895 248.434 111.895L248.422 111.908Z" fill="#0479FE"></path><path d="M378.372 75.3054C378.262 69.5044 377.45 64.116 375.933 59.128C374.416 54.1401 372.221 49.7711 369.357 45.9968C366.494 42.2347 362.939 39.2977 358.729 37.2103C354.507 35.1229 349.533 33.97 343.794 33.97C338.056 33.97 332.997 35.1593 328.944 37.3074C325.596 39.0793 322.733 41.288 320.306 43.8852V4.17602C320.306 3.0231 319.918 2.02794 319.166 1.21483C318.401 0.40171 317.37 0.0012207 316.084 0.0012207H305.117C303.94 0.0012207 302.945 0.413846 302.12 1.21483C301.295 2.02794 300.882 3.01096 300.882 4.17602V122.041C300.882 123.206 301.295 124.189 302.12 125.002C302.945 125.816 303.94 126.228 305.117 126.228H316.084C317.37 126.228 318.401 125.816 319.166 125.002C319.93 124.189 320.306 123.194 320.306 122.041V118.522C322.539 120.84 325.147 122.854 328.132 124.517C332.293 126.835 337.522 128 343.794 128C349.533 128 354.507 126.981 358.729 124.954C362.951 122.927 366.47 120.063 369.285 116.349C372.099 112.636 374.259 108.267 375.775 103.218C377.292 98.1818 378.153 92.6478 378.372 86.6162C378.481 84.5288 378.529 82.6477 378.529 80.9608C378.529 79.2739 378.469 77.3928 378.372 75.3054V75.3054ZM359.045 86.3492C358.826 90.5968 358.099 94.4925 356.885 98.0362C355.66 101.58 353.731 104.444 351.062 106.629C348.405 108.813 344.68 109.905 339.924 109.905C335.168 109.905 331.699 108.789 328.872 106.544C326.045 104.298 323.994 101.434 322.721 97.9512C321.447 94.4682 320.694 90.9002 320.476 87.2351C320.367 85.1113 320.306 82.8419 320.306 80.4147C320.306 77.9875 320.367 75.718 320.476 73.5942C320.585 70.0505 321.362 66.6645 322.805 63.4121C324.249 60.1717 326.348 57.4775 329.126 55.3537C331.893 53.2299 335.496 52.1619 339.936 52.1619C344.704 52.1619 348.417 53.2542 351.074 55.4387C353.731 57.6232 355.672 60.4873 356.897 64.031C358.111 67.5747 358.839 71.4704 359.057 75.718C359.166 79.2617 359.166 82.8055 359.057 86.337L359.045 86.3492Z" fill="#0479FE"></path><path d="M392.457 126.216C391.281 126.216 390.286 125.803 389.461 124.978C388.636 124.153 388.223 123.158 388.223 121.981V38.2055C388.223 37.0283 388.636 36.0331 389.461 35.2078C390.286 34.3826 391.281 33.97 392.457 33.97H403.413C404.699 33.97 405.73 34.3826 406.494 35.2078C407.259 36.0331 407.635 37.0283 407.635 38.2055V121.993C407.635 123.17 407.247 124.165 406.494 124.99C405.73 125.816 404.699 126.228 403.413 126.228H392.457V126.216Z" fill="#0479FE"></path><path d="M397.941 29.1278C404.642 29.1278 410.074 23.6943 410.074 16.9918C410.074 10.2892 404.642 4.85571 397.941 4.85571C391.241 4.85571 385.809 10.2892 385.809 16.9918C385.809 23.6943 391.241 29.1278 397.941 29.1278Z" fill="#0479FE"></path><path d="M107.286 63.1086C112.503 60.2566 117.126 56.458 120.923 51.9434C128.106 43.4482 121.275 30.9966 110.659 33.266C109.24 33.5694 107.784 33.8 106.316 33.9699C98.1265 34.868 90.107 33.1932 83.1795 29.516C76.5309 25.3533 71.0835 19.2368 67.7592 11.6881C67.1647 10.3289 66.6431 8.95752 66.1942 7.57401C62.8456 -2.75376 48.6629 -2.43823 44.8898 8.02304C42.8879 13.5692 41.9052 19.4795 42.0508 25.4261C36.9795 22.3314 31.3743 20.2319 25.5629 19.1882C14.6195 17.2222 7.25519 29.3582 14.5225 37.4165C15.4931 38.4967 16.4273 39.6374 17.3008 40.8389C22.1659 47.4895 24.7379 55.2687 25.017 63.1086C24.7379 70.9484 22.1659 78.7276 17.3008 85.3782C16.4273 86.5797 15.4931 87.7205 14.5225 88.7884C7.25519 96.8589 14.6195 108.983 25.5629 107.017C31.3743 105.973 36.9795 103.874 42.0508 100.779C41.9052 106.726 42.9 112.624 44.8898 118.182C48.6629 128.643 62.8456 128.959 66.1942 118.631C66.6431 117.247 67.1647 115.876 67.7592 114.517C71.0835 106.98 76.5309 100.864 83.1795 96.689C90.107 93.0118 98.1265 91.3491 106.316 92.2351C107.796 92.3928 109.24 92.6356 110.659 92.939C121.275 95.2084 128.093 82.7568 120.923 74.2616C117.114 69.7591 112.491 65.9484 107.286 63.0964V63.1086ZM84.696 68.7397L66.5339 86.3127C65.078 87.7205 62.7607 87.7205 61.3048 86.3127L43.1427 68.7397C37.4041 63.0236 37.4041 53.7759 43.1427 48.0599C48.8813 42.3438 58.1868 42.3559 63.9254 48.0599C69.664 42.3559 78.9695 42.3559 84.7081 48.0599C90.4467 53.7638 90.4467 63.0236 84.7081 68.7397H84.696Z" fill="#0479FE"></path><path d="M10.3974 73.5092C16.1398 73.5092 20.7949 68.8527 20.7949 63.1086C20.7949 57.3645 16.1398 52.708 10.3974 52.708C4.65509 52.708 0 57.3645 0 63.1086C0 68.8527 4.65509 73.5092 10.3974 73.5092Z" fill="#0479FE"></path><path d="M85.2782 100.342C80.3039 103.218 78.5933 109.577 81.4686 114.553C84.344 119.529 90.7014 121.24 95.6756 118.364C100.65 115.488 102.361 109.128 99.4852 104.153C96.6098 99.1768 90.2525 97.4656 85.2782 100.342V100.342Z" fill="#0479FE"></path><path d="M85.2782 25.8751C90.2525 28.7514 96.6098 27.0402 99.4852 22.0644C102.361 17.0886 100.65 10.7293 95.6756 7.8531C90.7014 4.97686 84.344 6.68804 81.4686 11.6638C78.5933 16.6396 80.3039 22.9989 85.2782 25.8751Z" fill="#0479FE"></path><path d="M42.7786 93.4973C42.3297 95.9245 42.0992 98.3517 42.0386 100.779C44.1132 99.5168 46.115 98.0968 47.9834 96.4949C52.436 92.672 55.9301 88.2909 58.49 83.5821L50.2279 75.5845C46.6489 80.6816 44.0525 86.7011 42.7786 93.4851V93.4973Z" fill="#233CFE"></path><path d="M59.8003 45.1958C57.1797 39.5161 53.2489 34.2127 47.9834 29.6981C46.115 28.0961 44.1132 26.6762 42.0386 25.4141C42.0992 27.8413 42.3176 30.2806 42.7786 32.6957C43.6279 37.2467 45.0959 41.4579 47.0371 45.2808C51.0529 43.3147 55.7603 43.2905 59.8003 45.1837V45.1958Z" fill="#233CFE"></path><path d="M100.602 60.0988C96.6949 58.7275 92.7883 57.9143 88.9423 57.5867C89.1607 61.5916 87.7533 65.6693 84.6717 68.7397L84.6475 68.764C89.8522 68.8368 95.2269 67.9994 100.589 66.1062C102.907 65.2931 105.139 64.2615 107.262 63.0964C105.127 61.9314 102.907 60.9119 100.589 60.0867L100.602 60.0988Z" fill="#233CFE"></path></svg>